<svg xmlns="http://www.w3.org/2000/svg" xmlns:xlink="http://www.w3.org/1999/xlink" width="500" zoomAndPan="magnify" viewBox="0 0 375 374.999991" height="500" preserveAspectRatio="xMidYMid meet" version="1.0"><defs><g/><clipPath id="4cc0d58c83"><path d="M 124.074219 151 L 133 151 L 133 158 L 124.074219 158 Z M 124.074219 151 " clip-rule="nonzero"/></clipPath><clipPath id="c524123bde"><path d="M 203 118.464844 L 238.824219 118.464844 L 238.824219 195.714844 L 203 195.714844 Z M 203 118.464844 " clip-rule="nonzero"/></clipPath><clipPath id="2b42cfb0ce"><path d="M 157 154 L 214 154 L 214 195.714844 L 157 195.714844 Z M 157 154 " clip-rule="nonzero"/></clipPath></defs><g clip-path="url(#4cc0d58c83)"><path fill="#5e2590" d="M 129.058594 157.144531 C 130.738281 157.144531 132.101562 155.777344 132.101562 154.089844 C 132.101562 152.40625 130.738281 151.039062 129.058594 151.039062 L 127.910156 151.039062 C 126.820312 151.039062 125.816406 151.621094 125.273438 152.5625 C 124.101562 154.597656 125.566406 157.144531 127.910156 157.144531 L 129.058594 157.144531 " fill-opacity="1" fill-rule="nonzero"/></g><path fill="#5e2590" d="M 138.722656 157.144531 L 150.53125 157.144531 C 152.210938 157.144531 153.574219 155.777344 153.574219 154.089844 C 153.574219 152.40625 152.210938 151.039062 150.53125 151.039062 L 138.722656 151.039062 C 137.042969 151.039062 135.679688 152.40625 135.679688 154.089844 C 135.679688 155.777344 137.042969 157.144531 138.722656 157.144531 " fill-opacity="1" fill-rule="nonzero"/><path fill="#762e99" d="M 136.222656 169.90625 C 136.289062 169.910156 136.355469 169.914062 136.425781 169.914062 L 158.453125 169.914062 C 160.132812 169.914062 161.496094 168.546875 161.496094 166.859375 C 161.496094 165.175781 160.132812 163.808594 158.453125 163.808594 L 142.371094 163.808594 C 140.125 165.632812 138.066406 167.675781 136.222656 169.90625 " fill-opacity="1" fill-rule="nonzero"/><g clip-path="url(#c524123bde)"><path fill="#5e2590" d="M 237.730469 157.582031 L 223.75 133.292969 C 225.671875 131.402344 231.226562 125.375 231.867188 118.464844 C 231.863281 118.46875 226.425781 137.230469 203.15625 136.945312 L 214.273438 162.832031 C 216.550781 168.128906 215.214844 174.074219 211.363281 177.902344 C 210.753906 178.507812 210.082031 179.058594 209.351562 179.546875 C 211.621094 184.507812 212.996094 189.964844 213.261719 195.714844 L 215.777344 195.714844 C 217.910156 195.714844 219.878906 194.578125 220.945312 192.726562 L 237.730469 163.566406 C 238.796875 161.714844 238.796875 159.433594 237.730469 157.582031 " fill-opacity="1" fill-rule="nonzero"/></g><path fill="#5e2590" d="M 152.285156 144.371094 L 163.226562 144.371094 C 164.90625 144.371094 166.269531 143.007812 166.269531 141.320312 C 166.269531 139.632812 164.90625 138.269531 163.226562 138.269531 L 152.207031 138.269531 C 150.949219 138.269531 149.804688 139.046875 149.351562 140.261719 C 148.519531 142.5 149.902344 144.371094 152.285156 144.371094 " fill-opacity="1" fill-rule="nonzero"/><path fill="#5e2590" d="M 133.789062 168.386719 C 134.296875 169.269531 135.210938 169.839844 136.222656 169.90625 C 138.066406 167.675781 140.125 165.632812 142.371094 163.808594 L 136.425781 163.808594 C 134.082031 163.808594 132.617188 166.351562 133.789062 168.386719 " fill-opacity="1" fill-rule="nonzero"/><g clip-path="url(#2b42cfb0ce)"><path fill="#762e99" d="M 207.175781 180.730469 C 200.289062 183.710938 192.296875 180.523438 189.328125 173.613281 C 187.277344 168.835938 188.164062 163.535156 191.179688 159.730469 C 184.855469 156.140625 177.546875 154.089844 169.761719 154.089844 C 165.566406 154.089844 161.507812 154.6875 157.671875 155.796875 C 158.21875 156.609375 159.144531 157.144531 160.195312 157.144531 L 179.398438 157.144531 C 181.199219 157.144531 182.734375 158.546875 182.796875 160.355469 C 182.867188 162.25 181.351562 163.808594 179.476562 163.808594 L 168.117188 163.808594 C 166.4375 163.808594 165.074219 165.175781 165.074219 166.859375 C 165.074219 168.546875 166.4375 169.914062 168.117188 169.914062 L 175.136719 169.914062 C 176.9375 169.914062 178.472656 171.316406 178.539062 173.125 C 178.605469 175.019531 177.09375 176.578125 175.21875 176.578125 L 167.941406 176.578125 C 165.558594 176.578125 164.175781 178.449219 165.007812 180.691406 C 165.460938 181.90625 166.605469 182.683594 167.863281 182.683594 L 183.996094 182.683594 C 185.796875 182.683594 187.332031 184.089844 187.394531 185.894531 C 187.464844 187.789062 185.949219 189.347656 184.074219 189.347656 L 175.101562 189.347656 L 177.042969 192.726562 C 178.109375 194.578125 180.078125 195.714844 182.207031 195.714844 L 213.261719 195.714844 C 212.996094 189.964844 211.621094 184.507812 209.351562 179.546875 C 208.675781 180 207.949219 180.398438 207.175781 180.730469 " fill-opacity="1" fill-rule="nonzero"/></g><path fill="#5e2590" d="M 191.179688 159.730469 C 192.527344 158.03125 194.300781 156.632812 196.425781 155.710938 C 197.578125 155.214844 198.757812 154.890625 199.941406 154.726562 C 201.910156 154.453125 203.886719 154.621094 205.734375 155.183594 L 199.253906 140.082031 L 194.691406 129.46875 C 194.691406 129.46875 207.546875 130.5 219.140625 126.472656 C 218.164062 125.804688 217 125.429688 215.777344 125.429688 L 182.207031 125.429688 C 180.078125 125.429688 178.109375 126.570312 177.042969 128.421875 L 175.210938 131.601562 L 181.949219 131.601562 C 183.75 131.601562 185.285156 133.007812 185.347656 134.8125 C 185.414062 136.710938 183.902344 138.269531 182.027344 138.269531 L 172.890625 138.269531 C 171.210938 138.269531 169.847656 139.632812 169.847656 141.320312 C 169.847656 143.007812 171.210938 144.371094 172.890625 144.371094 L 192.773438 144.371094 C 194.574219 144.371094 196.109375 145.777344 196.175781 147.585938 C 196.242188 149.480469 194.730469 151.039062 192.855469 151.039062 L 160.195312 151.039062 C 158.515625 151.039062 157.152344 152.40625 157.152344 154.089844 C 157.152344 154.722656 157.34375 155.308594 157.671875 155.796875 C 161.507812 154.6875 165.566406 154.089844 169.761719 154.089844 C 177.546875 154.089844 184.855469 156.140625 191.179688 159.730469 " fill-opacity="1" fill-rule="nonzero"/><g fill="#170637" fill-opacity="1"><g transform="translate(84.012635, 233.665511)"><g><path d="M 5.921875 0.328125 C 4.597656 0.328125 3.378906 0.0820312 2.265625 -0.40625 C 1.160156 -0.894531 0.253906 -1.597656 -0.453125 -2.515625 L 2.0625 -5.53125 C 3.125 -4.09375 4.335938 -3.375 5.703125 -3.375 C 7.546875 -3.375 8.46875 -4.457031 8.46875 -6.625 L 8.46875 -15.9375 L 1.59375 -15.9375 L 1.59375 -19.5625 L 12.96875 -19.5625 L 12.96875 -6.875 C 12.96875 -4.46875 12.367188 -2.664062 11.171875 -1.46875 C 9.984375 -0.269531 8.234375 0.328125 5.921875 0.328125 Z M 5.921875 0.328125 "/></g></g></g><g fill="#170637" fill-opacity="1"><g transform="translate(99.132254, 233.665511)"><g><path d="M 11.015625 0.328125 C 8.222656 0.328125 6.046875 -0.441406 4.484375 -1.984375 C 2.929688 -3.535156 2.15625 -5.742188 2.15625 -8.609375 L 2.15625 -19.5625 L 6.6875 -19.5625 L 6.6875 -8.78125 C 6.6875 -5.269531 8.140625 -3.515625 11.046875 -3.515625 C 12.460938 -3.515625 13.539062 -3.9375 14.28125 -4.78125 C 15.03125 -5.632812 15.40625 -6.96875 15.40625 -8.78125 L 15.40625 -19.5625 L 19.875 -19.5625 L 19.875 -8.609375 C 19.875 -5.742188 19.09375 -3.535156 17.53125 -1.984375 C 15.976562 -0.441406 13.804688 0.328125 11.015625 0.328125 Z M 11.015625 0.328125 "/></g></g></g><g fill="#170637" fill-opacity="1"><g transform="translate(121.154916, 233.665511)"><g><path d="M 9.453125 -7.6875 L 6.828125 -4.953125 L 6.828125 0 L 2.3125 0 L 2.3125 -19.5625 L 6.828125 -19.5625 L 6.828125 -10.421875 L 15.484375 -19.5625 L 20.515625 -19.5625 L 12.40625 -10.84375 L 21 0 L 15.703125 0 Z M 9.453125 -7.6875 "/></g></g></g><g fill="#170637" fill-opacity="1"><g transform="translate(141.836091, 233.665511)"><g><path d="M 17.46875 -3.640625 L 17.46875 0 L 2.3125 0 L 2.3125 -19.5625 L 17.109375 -19.5625 L 17.109375 -15.9375 L 6.828125 -15.9375 L 6.828125 -11.6875 L 15.90625 -11.6875 L 15.90625 -8.15625 L 6.828125 -8.15625 L 6.828125 -3.640625 Z M 17.46875 -3.640625 "/></g></g></g><g fill="#170637" fill-opacity="1"><g transform="translate(160.588893, 233.665511)"><g/></g></g><g fill="#170637" fill-opacity="1"><g transform="translate(168.498043, 233.665511)"><g><path d="M 8.75 0.328125 C 7.195312 0.328125 5.695312 0.117188 4.25 -0.296875 C 2.8125 -0.710938 1.65625 -1.253906 0.78125 -1.921875 L 2.3125 -5.34375 C 3.15625 -4.726562 4.15625 -4.234375 5.3125 -3.859375 C 6.46875 -3.484375 7.625 -3.296875 8.78125 -3.296875 C 10.0625 -3.296875 11.007812 -3.484375 11.625 -3.859375 C 12.238281 -4.242188 12.546875 -4.753906 12.546875 -5.390625 C 12.546875 -5.859375 12.363281 -6.242188 12 -6.546875 C 11.632812 -6.859375 11.164062 -7.109375 10.59375 -7.296875 C 10.03125 -7.484375 9.265625 -7.6875 8.296875 -7.90625 C 6.804688 -8.257812 5.585938 -8.613281 4.640625 -8.96875 C 3.691406 -9.320312 2.875 -9.890625 2.1875 -10.671875 C 1.507812 -11.460938 1.171875 -12.507812 1.171875 -13.8125 C 1.171875 -14.945312 1.476562 -15.972656 2.09375 -16.890625 C 2.707031 -17.816406 3.632812 -18.550781 4.875 -19.09375 C 6.113281 -19.632812 7.628906 -19.90625 9.421875 -19.90625 C 10.671875 -19.90625 11.890625 -19.753906 13.078125 -19.453125 C 14.273438 -19.160156 15.320312 -18.734375 16.21875 -18.171875 L 14.8125 -14.734375 C 13.007812 -15.753906 11.203125 -16.265625 9.390625 -16.265625 C 8.117188 -16.265625 7.179688 -16.054688 6.578125 -15.640625 C 5.972656 -15.234375 5.671875 -14.695312 5.671875 -14.03125 C 5.671875 -13.363281 6.019531 -12.863281 6.71875 -12.53125 C 7.414062 -12.207031 8.484375 -11.890625 9.921875 -11.578125 C 11.410156 -11.222656 12.628906 -10.867188 13.578125 -10.515625 C 14.535156 -10.160156 15.351562 -9.597656 16.03125 -8.828125 C 16.707031 -8.066406 17.046875 -7.035156 17.046875 -5.734375 C 17.046875 -4.609375 16.734375 -3.582031 16.109375 -2.65625 C 15.484375 -1.738281 14.546875 -1.007812 13.296875 -0.46875 C 12.054688 0.0625 10.539062 0.328125 8.75 0.328125 Z M 8.75 0.328125 "/></g></g></g><g fill="#170637" fill-opacity="1"><g transform="translate(186.328569, 233.665511)"><g><path d="M 6.375 -15.875 L 0.109375 -15.875 L 0.109375 -19.5625 L 17.15625 -19.5625 L 17.15625 -15.875 L 10.90625 -15.875 L 10.90625 0 L 6.375 0 Z M 6.375 -15.875 "/></g></g></g><g fill="#170637" fill-opacity="1"><g transform="translate(203.600143, 233.665511)"><g><path d="M 14.78125 0 L 11.015625 -5.453125 L 6.84375 -5.453125 L 6.84375 0 L 2.3125 0 L 2.3125 -19.5625 L 10.796875 -19.5625 C 12.523438 -19.5625 14.023438 -19.269531 15.296875 -18.6875 C 16.578125 -18.113281 17.5625 -17.296875 18.25 -16.234375 C 18.9375 -15.171875 19.28125 -13.914062 19.28125 -12.46875 C 19.28125 -11.007812 18.929688 -9.753906 18.234375 -8.703125 C 17.535156 -7.648438 16.546875 -6.847656 15.265625 -6.296875 L 19.65625 0 Z M 14.703125 -12.46875 C 14.703125 -13.5625 14.347656 -14.398438 13.640625 -14.984375 C 12.929688 -15.578125 11.894531 -15.875 10.53125 -15.875 L 6.84375 -15.875 L 6.84375 -9.0625 L 10.53125 -9.0625 C 11.894531 -9.0625 12.929688 -9.359375 13.640625 -9.953125 C 14.347656 -10.546875 14.703125 -11.382812 14.703125 -12.46875 Z M 14.703125 -12.46875 "/></g></g></g><g fill="#170637" fill-opacity="1"><g transform="translate(224.141588, 233.665511)"><g><path d="M 17.46875 -3.640625 L 17.46875 0 L 2.3125 0 L 2.3125 -19.5625 L 17.109375 -19.5625 L 17.109375 -15.9375 L 6.828125 -15.9375 L 6.828125 -11.6875 L 15.90625 -11.6875 L 15.90625 -8.15625 L 6.828125 -8.15625 L 6.828125 -3.640625 Z M 17.46875 -3.640625 "/></g></g></g><g fill="#170637" fill-opacity="1"><g transform="translate(242.894391, 233.665511)"><g><path d="M 15.203125 -4.1875 L 6.125 -4.1875 L 4.390625 0 L -0.25 0 L 8.46875 -19.5625 L 12.9375 -19.5625 L 21.6875 0 L 16.9375 0 Z M 13.78125 -7.625 L 10.671875 -15.125 L 7.578125 -7.625 Z M 13.78125 -7.625 "/></g></g></g><g fill="#170637" fill-opacity="1"><g transform="translate(264.302202, 233.665511)"><g><path d="M 20.125 0 L 20.09375 -11.734375 L 14.34375 -2.0625 L 12.296875 -2.0625 L 6.5625 -11.484375 L 6.5625 0 L 2.3125 0 L 2.3125 -19.5625 L 6.0625 -19.5625 L 13.390625 -7.40625 L 20.59375 -19.5625 L 24.3125 -19.5625 L 24.375 0 Z M 20.125 0 "/></g></g></g><g fill="#762e99" fill-opacity="1"><g transform="translate(117.849144, 254.672916)"><g><path d="M 0.09375 -0.953125 L 0.5 -1.375 C 0.78125 -1.070312 1.082031 -0.84375 1.40625 -0.6875 C 1.738281 -0.53125 2.085938 -0.453125 2.453125 -0.453125 C 2.890625 -0.453125 3.25 -0.554688 3.53125 -0.765625 C 3.8125 -0.972656 3.953125 -1.238281 3.953125 -1.5625 C 3.953125 -1.84375 3.851562 -2.0625 3.65625 -2.21875 C 3.457031 -2.375 3.128906 -2.488281 2.671875 -2.5625 L 1.859375 -2.6875 C 1.316406 -2.769531 0.914062 -2.925781 0.65625 -3.15625 C 0.40625 -3.394531 0.28125 -3.710938 0.28125 -4.109375 C 0.28125 -4.566406 0.460938 -4.9375 0.828125 -5.21875 C 1.191406 -5.507812 1.664062 -5.65625 2.25 -5.65625 C 2.632812 -5.65625 3.019531 -5.59375 3.40625 -5.46875 C 3.789062 -5.34375 4.140625 -5.160156 4.453125 -4.921875 L 4.109375 -4.4375 C 3.804688 -4.664062 3.492188 -4.835938 3.171875 -4.953125 C 2.859375 -5.078125 2.546875 -5.140625 2.234375 -5.140625 C 1.828125 -5.140625 1.5 -5.046875 1.25 -4.859375 C 1.007812 -4.671875 0.890625 -4.4375 0.890625 -4.15625 C 0.890625 -3.894531 0.972656 -3.691406 1.140625 -3.546875 C 1.316406 -3.410156 1.609375 -3.3125 2.015625 -3.25 L 2.8125 -3.125 C 3.425781 -3.019531 3.867188 -2.84375 4.140625 -2.59375 C 4.421875 -2.351562 4.5625 -2.019531 4.5625 -1.59375 C 4.5625 -1.34375 4.507812 -1.113281 4.40625 -0.90625 C 4.300781 -0.707031 4.15625 -0.535156 3.96875 -0.390625 C 3.78125 -0.242188 3.550781 -0.128906 3.28125 -0.046875 C 3.019531 0.0351562 2.734375 0.078125 2.421875 0.078125 C 1.984375 0.078125 1.5625 -0.0078125 1.15625 -0.1875 C 0.75 -0.363281 0.394531 -0.617188 0.09375 -0.953125 Z M 0.09375 -0.953125 "/></g></g></g><g fill="#762e99" fill-opacity="1"><g transform="translate(128.231106, 254.672916)"><g><path d="M 0.609375 0 L 0.609375 -5.59375 L 1.234375 -5.59375 L 1.234375 -3.09375 L 4.484375 -3.09375 L 4.484375 -5.59375 L 5.09375 -5.59375 L 5.09375 0 L 4.484375 0 L 4.484375 -2.53125 L 1.234375 -2.53125 L 1.234375 0 Z M 0.609375 0 "/></g></g></g><g fill="#762e99" fill-opacity="1"><g transform="translate(139.531472, 254.672916)"><g><path d="M 0.03125 0 L 2.359375 -5.59375 L 3.09375 -5.59375 L 5.390625 0 L 4.71875 0 L 4.015625 -1.75 L 1.375 -1.75 L 0.671875 0 Z M 1.59375 -2.28125 L 3.796875 -2.28125 L 2.703125 -5.015625 Z M 1.59375 -2.28125 "/></g></g></g><g fill="#762e99" fill-opacity="1"><g transform="translate(150.544333, 254.672916)"><g><path d="M 0.609375 0 L 0.609375 -5.59375 L 3.015625 -5.59375 C 3.554688 -5.59375 3.992188 -5.441406 4.328125 -5.140625 C 4.660156 -4.847656 4.828125 -4.460938 4.828125 -3.984375 C 4.828125 -3.617188 4.71875 -3.300781 4.5 -3.03125 C 4.289062 -2.769531 4.003906 -2.585938 3.640625 -2.484375 L 4.890625 0 L 4.21875 0 L 3.015625 -2.40625 L 1.234375 -2.40625 L 1.234375 0 Z M 2.96875 -5.03125 L 1.234375 -5.03125 L 1.234375 -2.921875 L 2.96875 -2.921875 C 3.34375 -2.921875 3.644531 -3.015625 3.875 -3.203125 C 4.101562 -3.398438 4.21875 -3.660156 4.21875 -3.984375 C 4.21875 -4.304688 4.101562 -4.5625 3.875 -4.75 C 3.644531 -4.9375 3.34375 -5.03125 2.96875 -5.03125 Z M 2.96875 -5.03125 "/></g></g></g><g fill="#762e99" fill-opacity="1"><g transform="translate(161.285666, 254.672916)"><g><path d="M 0.609375 0 L 0.609375 -5.59375 L 4.609375 -5.59375 L 4.609375 -5.046875 L 1.234375 -5.046875 L 1.234375 -3.09375 L 3.4375 -3.09375 L 3.4375 -2.5625 L 1.234375 -2.5625 L 1.234375 -0.546875 L 4.640625 -0.546875 L 4.640625 0 Z M 0.609375 0 "/></g></g></g><g fill="#762e99" fill-opacity="1"><g transform="translate(171.795408, 254.672916)"><g/></g></g><g fill="#762e99" fill-opacity="1"><g transform="translate(179.102698, 254.672916)"><g><path d="M 5.15625 -0.3125 L 4.796875 0.109375 C 4.648438 -0.015625 4.492188 -0.140625 4.328125 -0.265625 C 4.171875 -0.398438 4.007812 -0.535156 3.84375 -0.671875 C 3.613281 -0.421875 3.34375 -0.234375 3.03125 -0.109375 C 2.726562 0.015625 2.398438 0.078125 2.046875 0.078125 C 1.492188 0.078125 1.046875 -0.0664062 0.703125 -0.359375 C 0.367188 -0.648438 0.203125 -1.03125 0.203125 -1.5 C 0.203125 -1.820312 0.285156 -2.101562 0.453125 -2.34375 C 0.617188 -2.582031 0.898438 -2.804688 1.296875 -3.015625 L 1.4375 -3.109375 C 1.257812 -3.335938 1.128906 -3.550781 1.046875 -3.75 C 0.972656 -3.945312 0.9375 -4.148438 0.9375 -4.359375 C 0.9375 -4.734375 1.0625 -5.046875 1.3125 -5.296875 C 1.570312 -5.546875 1.894531 -5.671875 2.28125 -5.671875 C 2.644531 -5.671875 2.945312 -5.5625 3.1875 -5.34375 C 3.425781 -5.125 3.546875 -4.847656 3.546875 -4.515625 C 3.546875 -4.253906 3.472656 -4.019531 3.328125 -3.8125 C 3.179688 -3.601562 2.957031 -3.410156 2.65625 -3.234375 L 2.25 -3 C 2.46875 -2.75 2.707031 -2.492188 2.96875 -2.234375 C 3.226562 -1.984375 3.492188 -1.734375 3.765625 -1.484375 C 3.898438 -1.691406 4.007812 -1.925781 4.09375 -2.1875 C 4.1875 -2.445312 4.257812 -2.710938 4.3125 -2.984375 L 4.859375 -2.890625 C 4.785156 -2.554688 4.691406 -2.238281 4.578125 -1.9375 C 4.472656 -1.644531 4.335938 -1.375 4.171875 -1.125 C 4.335938 -0.976562 4.503906 -0.835938 4.671875 -0.703125 C 4.847656 -0.566406 5.007812 -0.4375 5.15625 -0.3125 Z M 1.5 -4.375 C 1.5 -4.207031 1.53125 -4.046875 1.59375 -3.890625 C 1.65625 -3.742188 1.769531 -3.566406 1.9375 -3.359375 L 2.390625 -3.625 C 2.585938 -3.738281 2.734375 -3.867188 2.828125 -4.015625 C 2.929688 -4.160156 2.984375 -4.320312 2.984375 -4.5 C 2.984375 -4.695312 2.910156 -4.859375 2.765625 -4.984375 C 2.628906 -5.117188 2.460938 -5.1875 2.265625 -5.1875 C 2.046875 -5.1875 1.863281 -5.109375 1.71875 -4.953125 C 1.570312 -4.804688 1.5 -4.613281 1.5 -4.375 Z M 0.765625 -1.515625 C 0.765625 -1.179688 0.882812 -0.914062 1.125 -0.71875 C 1.375 -0.519531 1.691406 -0.421875 2.078125 -0.421875 C 2.335938 -0.421875 2.582031 -0.472656 2.8125 -0.578125 C 3.050781 -0.679688 3.265625 -0.828125 3.453125 -1.015625 C 3.148438 -1.296875 2.847656 -1.582031 2.546875 -1.875 C 2.253906 -2.164062 1.988281 -2.445312 1.75 -2.71875 L 1.578125 -2.625 C 1.285156 -2.457031 1.078125 -2.285156 0.953125 -2.109375 C 0.828125 -1.941406 0.765625 -1.742188 0.765625 -1.515625 Z M 0.765625 -1.515625 "/></g></g></g><g fill="#762e99" fill-opacity="1"><g transform="translate(189.907925, 254.672916)"><g/></g></g><g fill="#762e99" fill-opacity="1"><g transform="translate(197.215215, 254.672916)"><g><path d="M 0.09375 -0.953125 L 0.5 -1.375 C 0.78125 -1.070312 1.082031 -0.84375 1.40625 -0.6875 C 1.738281 -0.53125 2.085938 -0.453125 2.453125 -0.453125 C 2.890625 -0.453125 3.25 -0.554688 3.53125 -0.765625 C 3.8125 -0.972656 3.953125 -1.238281 3.953125 -1.5625 C 3.953125 -1.84375 3.851562 -2.0625 3.65625 -2.21875 C 3.457031 -2.375 3.128906 -2.488281 2.671875 -2.5625 L 1.859375 -2.6875 C 1.316406 -2.769531 0.914062 -2.925781 0.65625 -3.15625 C 0.40625 -3.394531 0.28125 -3.710938 0.28125 -4.109375 C 0.28125 -4.566406 0.460938 -4.9375 0.828125 -5.21875 C 1.191406 -5.507812 1.664062 -5.65625 2.25 -5.65625 C 2.632812 -5.65625 3.019531 -5.59375 3.40625 -5.46875 C 3.789062 -5.34375 4.140625 -5.160156 4.453125 -4.921875 L 4.109375 -4.4375 C 3.804688 -4.664062 3.492188 -4.835938 3.171875 -4.953125 C 2.859375 -5.078125 2.546875 -5.140625 2.234375 -5.140625 C 1.828125 -5.140625 1.5 -5.046875 1.25 -4.859375 C 1.007812 -4.671875 0.890625 -4.4375 0.890625 -4.15625 C 0.890625 -3.894531 0.972656 -3.691406 1.140625 -3.546875 C 1.316406 -3.410156 1.609375 -3.3125 2.015625 -3.25 L 2.8125 -3.125 C 3.425781 -3.019531 3.867188 -2.84375 4.140625 -2.59375 C 4.421875 -2.351562 4.5625 -2.019531 4.5625 -1.59375 C 4.5625 -1.34375 4.507812 -1.113281 4.40625 -0.90625 C 4.300781 -0.707031 4.15625 -0.535156 3.96875 -0.390625 C 3.78125 -0.242188 3.550781 -0.128906 3.28125 -0.046875 C 3.019531 0.0351562 2.734375 0.078125 2.421875 0.078125 C 1.984375 0.078125 1.5625 -0.0078125 1.15625 -0.1875 C 0.75 -0.363281 0.394531 -0.617188 0.09375 -0.953125 Z M 0.09375 -0.953125 "/></g></g></g><g fill="#762e99" fill-opacity="1"><g transform="translate(207.597178, 254.672916)"><g><path d="M 0.140625 -5.03125 L 0.140625 -5.59375 L 4.796875 -5.59375 L 4.796875 -5.03125 L 2.765625 -5.03125 L 2.765625 0 L 2.15625 0 L 2.15625 -5.03125 Z M 0.140625 -5.03125 "/></g></g></g><g fill="#762e99" fill-opacity="1"><g transform="translate(218.114896, 254.672916)"><g><path d="M 0.609375 0 L 0.609375 -5.59375 L 3.015625 -5.59375 C 3.554688 -5.59375 3.992188 -5.441406 4.328125 -5.140625 C 4.660156 -4.847656 4.828125 -4.460938 4.828125 -3.984375 C 4.828125 -3.617188 4.71875 -3.300781 4.5 -3.03125 C 4.289062 -2.769531 4.003906 -2.585938 3.640625 -2.484375 L 4.890625 0 L 4.21875 0 L 3.015625 -2.40625 L 1.234375 -2.40625 L 1.234375 0 Z M 2.96875 -5.03125 L 1.234375 -5.03125 L 1.234375 -2.921875 L 2.96875 -2.921875 C 3.34375 -2.921875 3.644531 -3.015625 3.875 -3.203125 C 4.101562 -3.398438 4.21875 -3.660156 4.21875 -3.984375 C 4.21875 -4.304688 4.101562 -4.5625 3.875 -4.75 C 3.644531 -4.9375 3.34375 -5.03125 2.96875 -5.03125 Z M 2.96875 -5.03125 "/></g></g></g><g fill="#762e99" fill-opacity="1"><g transform="translate(228.856224, 254.672916)"><g><path d="M 0.609375 0 L 0.609375 -5.59375 L 4.609375 -5.59375 L 4.609375 -5.046875 L 1.234375 -5.046875 L 1.234375 -3.09375 L 3.4375 -3.09375 L 3.4375 -2.5625 L 1.234375 -2.5625 L 1.234375 -0.546875 L 4.640625 -0.546875 L 4.640625 0 Z M 0.609375 0 "/></g></g></g><g fill="#762e99" fill-opacity="1"><g transform="translate(239.365961, 254.672916)"><g><path d="M 0.03125 0 L 2.359375 -5.59375 L 3.09375 -5.59375 L 5.390625 0 L 4.71875 0 L 4.015625 -1.75 L 1.375 -1.75 L 0.671875 0 Z M 1.59375 -2.28125 L 3.796875 -2.28125 L 2.703125 -5.015625 Z M 1.59375 -2.28125 "/></g></g></g><g fill="#762e99" fill-opacity="1"><g transform="translate(250.37882, 254.672916)"><g><path d="M 3.375 -0.40625 L 1.1875 -4.875 L 1.1875 0 L 0.609375 0 L 0.609375 -5.59375 L 1.484375 -5.59375 L 3.390625 -1.625 L 5.28125 -5.59375 L 6.140625 -5.59375 L 6.140625 0 L 5.5625 0 L 5.5625 -4.890625 Z M 3.375 -0.40625 "/></g></g></g></svg>