<svg xmlns="http://www.w3.org/2000/svg" xmlns:xlink="http://www.w3.org/1999/xlink" width="300" zoomAndPan="magnify" viewBox="0 0 224.87999 187.499995" height="250" preserveAspectRatio="xMidYMid meet" version="1.0"><defs><g/><clipPath id="6c5f6efe65"><path d="M 146 5.179688 L 202 5.179688 L 202 125.609375 L 146 125.609375 Z M 146 5.179688 " clip-rule="nonzero"/></clipPath><clipPath id="16f3ab2268"><path d="M 75 60 L 163 60 L 163 125.609375 L 75 125.609375 Z M 75 60 " clip-rule="nonzero"/></clipPath></defs><path fill="#5e2590" d="M 30.375 65.476562 C 33.003906 65.476562 35.136719 63.347656 35.136719 60.71875 C 35.136719 58.089844 33.003906 55.960938 30.375 55.960938 L 28.574219 55.960938 C 26.875 55.960938 25.300781 56.867188 24.453125 58.339844 L 24.449219 58.339844 C 22.617188 61.511719 24.910156 65.476562 28.574219 65.476562 L 30.375 65.476562 " fill-opacity="1" fill-rule="nonzero"/><path fill="#5e2590" d="M 45.496094 65.476562 L 63.96875 65.476562 C 66.597656 65.476562 68.730469 63.347656 68.730469 60.71875 C 68.730469 58.089844 66.597656 55.960938 63.96875 55.960938 L 45.496094 55.960938 C 42.867188 55.960938 40.734375 58.089844 40.734375 60.71875 C 40.734375 63.347656 42.867188 65.476562 45.496094 65.476562 " fill-opacity="1" fill-rule="nonzero"/><path fill="#762e99" d="M 41.582031 85.375 C 41.6875 85.382812 41.792969 85.386719 41.898438 85.386719 L 76.367188 85.386719 C 78.996094 85.386719 81.125 83.253906 81.125 80.628906 C 81.125 78 78.996094 75.867188 76.367188 75.867188 L 51.203125 75.867188 C 47.691406 78.710938 44.464844 81.898438 41.582031 85.375 " fill-opacity="1" fill-rule="nonzero"/><g clip-path="url(#6c5f6efe65)"><path fill="#5e2590" d="M 200.402344 66.164062 L 178.527344 28.296875 C 181.53125 25.347656 190.226562 15.953125 191.226562 5.183594 C 191.226562 5.1875 182.710938 34.4375 146.308594 33.992188 L 163.703125 74.347656 C 167.261719 82.601562 165.171875 91.871094 159.148438 97.839844 C 158.191406 98.785156 157.140625 99.644531 156 100.40625 C 159.554688 108.136719 161.703125 116.648438 162.121094 125.613281 L 166.058594 125.613281 C 169.390625 125.613281 172.472656 123.835938 174.136719 120.949219 L 200.402344 75.488281 C 202.066406 72.605469 202.066406 69.050781 200.402344 66.164062 " fill-opacity="1" fill-rule="nonzero"/></g><path fill="#5e2590" d="M 66.710938 45.570312 L 83.832031 45.570312 C 86.460938 45.570312 88.59375 43.4375 88.59375 40.8125 C 88.59375 38.183594 86.460938 36.054688 83.832031 36.054688 L 66.59375 36.054688 C 64.625 36.054688 62.832031 37.265625 62.125 39.160156 C 60.824219 42.652344 62.984375 45.570312 66.710938 45.570312 " fill-opacity="1" fill-rule="nonzero"/><path fill="#5e2590" d="M 37.773438 83.007812 C 38.574219 84.386719 40.003906 85.269531 41.582031 85.375 C 44.464844 81.898438 47.691406 78.710938 51.203125 75.867188 L 41.898438 75.867188 C 38.234375 75.867188 35.941406 79.835938 37.773438 83.007812 " fill-opacity="1" fill-rule="nonzero"/><g clip-path="url(#16f3ab2268)"><path fill="#762e99" d="M 152.597656 102.253906 C 141.820312 106.894531 129.320312 101.925781 124.675781 91.15625 C 121.464844 83.710938 122.847656 75.441406 127.570312 69.511719 C 117.671875 63.917969 106.238281 60.71875 94.054688 60.71875 C 87.492188 60.71875 81.144531 61.648438 75.140625 63.378906 C 75.996094 64.644531 77.445312 65.476562 79.089844 65.476562 L 109.136719 65.476562 C 111.953125 65.476562 114.355469 67.667969 114.457031 70.484375 C 114.558594 73.4375 112.195312 75.867188 109.257812 75.867188 L 91.488281 75.867188 C 88.855469 75.867188 86.726562 78 86.726562 80.628906 C 86.726562 83.253906 88.855469 85.386719 91.488281 85.386719 L 102.46875 85.386719 C 105.289062 85.386719 107.6875 87.574219 107.789062 90.390625 C 107.894531 93.347656 105.527344 95.777344 102.59375 95.777344 L 91.210938 95.777344 C 87.484375 95.777344 85.320312 98.695312 86.621094 102.1875 C 87.328125 104.082031 89.121094 105.292969 91.085938 105.292969 L 116.328125 105.292969 C 119.148438 105.292969 121.546875 107.484375 121.648438 110.300781 C 121.753906 113.257812 119.386719 115.683594 116.453125 115.683594 L 102.410156 115.683594 L 105.453125 120.949219 C 107.117188 123.835938 110.199219 125.613281 113.53125 125.613281 L 162.121094 125.613281 C 161.703125 116.648438 159.554688 108.136719 156 100.40625 C 154.941406 101.113281 153.808594 101.730469 152.597656 102.253906 " fill-opacity="1" fill-rule="nonzero"/></g><path fill="#5e2590" d="M 127.570312 69.511719 C 129.675781 66.863281 132.449219 64.683594 135.777344 63.25 C 137.578125 62.472656 139.425781 61.964844 141.28125 61.710938 C 144.359375 61.28125 147.449219 61.550781 150.34375 62.425781 L 140.199219 38.882812 L 133.0625 22.335938 C 133.0625 22.335938 153.175781 23.945312 171.3125 17.667969 C 169.789062 16.625 167.964844 16.039062 166.058594 16.039062 L 113.53125 16.039062 C 110.199219 16.039062 107.117188 17.816406 105.453125 20.703125 L 102.585938 25.660156 L 113.125 25.660156 C 115.941406 25.660156 118.34375 27.851562 118.445312 30.667969 C 118.550781 33.625 116.183594 36.054688 113.25 36.054688 L 98.953125 36.054688 C 96.324219 36.054688 94.191406 38.183594 94.191406 40.8125 C 94.191406 43.4375 96.324219 45.570312 98.953125 45.570312 L 130.0625 45.570312 C 132.882812 45.570312 135.285156 47.761719 135.382812 50.578125 C 135.488281 53.53125 133.121094 55.960938 130.1875 55.960938 L 79.089844 55.960938 C 76.460938 55.960938 74.328125 58.089844 74.328125 60.71875 C 74.328125 61.703125 74.628906 62.617188 75.140625 63.378906 C 81.144531 61.648438 87.492188 60.71875 94.054688 60.71875 C 106.238281 60.71875 117.671875 63.917969 127.570312 69.511719 " fill-opacity="1" fill-rule="nonzero"/><g fill="#170637" fill-opacity="1"><g transform="translate(18.70769, 153.050394)"><g><path d="M 5.359375 0.296875 C 4.160156 0.296875 3.0625 0.078125 2.0625 -0.359375 C 1.0625 -0.804688 0.238281 -1.445312 -0.40625 -2.28125 L 1.875 -5.015625 C 2.832031 -3.710938 3.925781 -3.0625 5.15625 -3.0625 C 6.832031 -3.0625 7.671875 -4.039062 7.671875 -6 L 7.671875 -14.421875 L 1.4375 -14.421875 L 1.4375 -17.71875 L 11.75 -17.71875 L 11.75 -6.234375 C 11.75 -4.054688 11.207031 -2.421875 10.125 -1.328125 C 9.039062 -0.242188 7.453125 0.296875 5.359375 0.296875 Z M 5.359375 0.296875 "/></g></g></g><g fill="#170637" fill-opacity="1"><g transform="translate(32.402272, 153.050394)"><g><path d="M 9.96875 0.296875 C 7.4375 0.296875 5.46875 -0.398438 4.0625 -1.796875 C 2.65625 -3.191406 1.953125 -5.191406 1.953125 -7.796875 L 1.953125 -17.71875 L 6.046875 -17.71875 L 6.046875 -7.953125 C 6.046875 -4.773438 7.363281 -3.1875 10 -3.1875 C 11.28125 -3.1875 12.257812 -3.570312 12.9375 -4.34375 C 13.613281 -5.113281 13.953125 -6.316406 13.953125 -7.953125 L 13.953125 -17.71875 L 18 -17.71875 L 18 -7.796875 C 18 -5.191406 17.289062 -3.191406 15.875 -1.796875 C 14.46875 -0.398438 12.5 0.296875 9.96875 0.296875 Z M 9.96875 0.296875 "/></g></g></g><g fill="#170637" fill-opacity="1"><g transform="translate(52.34928, 153.050394)"><g><path d="M 8.5625 -6.953125 L 6.171875 -4.484375 L 6.171875 0 L 2.09375 0 L 2.09375 -17.71875 L 6.171875 -17.71875 L 6.171875 -9.4375 L 14.015625 -17.71875 L 18.578125 -17.71875 L 11.234375 -9.828125 L 19.015625 0 L 14.21875 0 Z M 8.5625 -6.953125 "/></g></g></g><g fill="#170637" fill-opacity="1"><g transform="translate(71.081237, 153.050394)"><g><path d="M 15.8125 -3.296875 L 15.8125 0 L 2.09375 0 L 2.09375 -17.71875 L 15.484375 -17.71875 L 15.484375 -14.421875 L 6.171875 -14.421875 L 6.171875 -10.578125 L 14.40625 -10.578125 L 14.40625 -7.390625 L 6.171875 -7.390625 L 6.171875 -3.296875 Z M 15.8125 -3.296875 "/></g></g></g><g fill="#170637" fill-opacity="1"><g transform="translate(88.066572, 153.050394)"><g/></g></g><g fill="#170637" fill-opacity="1"><g transform="translate(95.230278, 153.050394)"><g><path d="M 7.921875 0.296875 C 6.523438 0.296875 5.171875 0.109375 3.859375 -0.265625 C 2.546875 -0.640625 1.492188 -1.132812 0.703125 -1.75 L 2.09375 -4.828125 C 2.851562 -4.273438 3.753906 -3.828125 4.796875 -3.484375 C 5.847656 -3.148438 6.898438 -2.984375 7.953125 -2.984375 C 9.109375 -2.984375 9.960938 -3.15625 10.515625 -3.5 C 11.078125 -3.851562 11.359375 -4.316406 11.359375 -4.890625 C 11.359375 -5.304688 11.191406 -5.65625 10.859375 -5.9375 C 10.535156 -6.21875 10.113281 -6.441406 9.59375 -6.609375 C 9.082031 -6.773438 8.390625 -6.957031 7.515625 -7.15625 C 6.171875 -7.476562 5.066406 -7.800781 4.203125 -8.125 C 3.335938 -8.445312 2.597656 -8.960938 1.984375 -9.671875 C 1.367188 -10.378906 1.0625 -11.320312 1.0625 -12.5 C 1.0625 -13.53125 1.335938 -14.460938 1.890625 -15.296875 C 2.453125 -16.128906 3.289062 -16.789062 4.40625 -17.28125 C 5.53125 -17.769531 6.90625 -18.015625 8.53125 -18.015625 C 9.65625 -18.015625 10.757812 -17.878906 11.84375 -17.609375 C 12.925781 -17.347656 13.875 -16.960938 14.6875 -16.453125 L 13.421875 -13.34375 C 11.773438 -14.269531 10.132812 -14.734375 8.5 -14.734375 C 7.351562 -14.734375 6.503906 -14.546875 5.953125 -14.171875 C 5.410156 -13.804688 5.140625 -13.316406 5.140625 -12.703125 C 5.140625 -12.097656 5.453125 -11.644531 6.078125 -11.34375 C 6.710938 -11.050781 7.679688 -10.765625 8.984375 -10.484375 C 10.335938 -10.160156 11.441406 -9.835938 12.296875 -9.515625 C 13.160156 -9.191406 13.898438 -8.679688 14.515625 -7.984375 C 15.128906 -7.296875 15.4375 -6.363281 15.4375 -5.1875 C 15.4375 -4.175781 15.15625 -3.253906 14.59375 -2.421875 C 14.03125 -1.585938 13.179688 -0.925781 12.046875 -0.4375 C 10.921875 0.0507812 9.546875 0.296875 7.921875 0.296875 Z M 7.921875 0.296875 "/></g></g></g><g fill="#170637" fill-opacity="1"><g transform="translate(111.380262, 153.050394)"><g><path d="M 5.765625 -14.375 L 0.09375 -14.375 L 0.09375 -17.71875 L 15.546875 -17.71875 L 15.546875 -14.375 L 9.875 -14.375 L 9.875 0 L 5.765625 0 Z M 5.765625 -14.375 "/></g></g></g><g fill="#170637" fill-opacity="1"><g transform="translate(127.023976, 153.050394)"><g><path d="M 13.390625 0 L 9.96875 -4.9375 L 6.203125 -4.9375 L 6.203125 0 L 2.09375 0 L 2.09375 -17.71875 L 9.765625 -17.71875 C 11.335938 -17.71875 12.703125 -17.457031 13.859375 -16.9375 C 15.015625 -16.414062 15.90625 -15.671875 16.53125 -14.703125 C 17.15625 -13.742188 17.46875 -12.609375 17.46875 -11.296875 C 17.46875 -9.972656 17.148438 -8.832031 16.515625 -7.875 C 15.878906 -6.925781 14.984375 -6.195312 13.828125 -5.6875 L 17.796875 0 Z M 13.3125 -11.296875 C 13.3125 -12.285156 12.988281 -13.046875 12.34375 -13.578125 C 11.707031 -14.109375 10.773438 -14.375 9.546875 -14.375 L 6.203125 -14.375 L 6.203125 -8.203125 L 9.546875 -8.203125 C 10.773438 -8.203125 11.707031 -8.472656 12.34375 -9.015625 C 12.988281 -9.554688 13.3125 -10.316406 13.3125 -11.296875 Z M 13.3125 -11.296875 "/></g></g></g><g fill="#170637" fill-opacity="1"><g transform="translate(145.629373, 153.050394)"><g><path d="M 15.8125 -3.296875 L 15.8125 0 L 2.09375 0 L 2.09375 -17.71875 L 15.484375 -17.71875 L 15.484375 -14.421875 L 6.171875 -14.421875 L 6.171875 -10.578125 L 14.40625 -10.578125 L 14.40625 -7.390625 L 6.171875 -7.390625 L 6.171875 -3.296875 Z M 15.8125 -3.296875 "/></g></g></g><g fill="#170637" fill-opacity="1"><g transform="translate(162.614708, 153.050394)"><g><path d="M 13.765625 -3.796875 L 5.546875 -3.796875 L 3.96875 0 L -0.234375 0 L 7.671875 -17.71875 L 11.71875 -17.71875 L 19.640625 0 L 15.34375 0 Z M 12.484375 -6.90625 L 9.671875 -13.6875 L 6.859375 -6.90625 Z M 12.484375 -6.90625 "/></g></g></g><g fill="#170637" fill-opacity="1"><g transform="translate(182.004816, 153.050394)"><g><path d="M 18.21875 0 L 18.203125 -10.625 L 12.984375 -1.875 L 11.140625 -1.875 L 5.953125 -10.40625 L 5.953125 0 L 2.09375 0 L 2.09375 -17.71875 L 5.5 -17.71875 L 12.125 -6.703125 L 18.65625 -17.71875 L 22.015625 -17.71875 L 22.078125 0 Z M 18.21875 0 "/></g></g></g><g fill="#762e99" fill-opacity="1"><g transform="translate(51.092053, 166.736154)"><g><path d="M 0.078125 -0.890625 L 0.46875 -1.296875 C 0.726562 -1.003906 1.007812 -0.785156 1.3125 -0.640625 C 1.625 -0.492188 1.953125 -0.421875 2.296875 -0.421875 C 2.703125 -0.421875 3.035156 -0.519531 3.296875 -0.71875 C 3.566406 -0.914062 3.703125 -1.160156 3.703125 -1.453125 C 3.703125 -1.722656 3.609375 -1.929688 3.421875 -2.078125 C 3.234375 -2.222656 2.925781 -2.328125 2.5 -2.390625 L 1.734375 -2.515625 C 1.234375 -2.597656 0.863281 -2.742188 0.625 -2.953125 C 0.382812 -3.171875 0.265625 -3.46875 0.265625 -3.84375 C 0.265625 -4.269531 0.429688 -4.617188 0.765625 -4.890625 C 1.109375 -5.160156 1.554688 -5.296875 2.109375 -5.296875 C 2.472656 -5.296875 2.832031 -5.234375 3.1875 -5.109375 C 3.550781 -4.992188 3.878906 -4.820312 4.171875 -4.59375 L 3.84375 -4.15625 C 3.550781 -4.363281 3.257812 -4.519531 2.96875 -4.625 C 2.675781 -4.738281 2.378906 -4.796875 2.078125 -4.796875 C 1.710938 -4.796875 1.410156 -4.707031 1.171875 -4.53125 C 0.941406 -4.363281 0.828125 -4.148438 0.828125 -3.890625 C 0.828125 -3.640625 0.910156 -3.445312 1.078125 -3.3125 C 1.242188 -3.1875 1.515625 -3.097656 1.890625 -3.046875 L 2.640625 -2.921875 C 3.203125 -2.828125 3.613281 -2.664062 3.875 -2.4375 C 4.132812 -2.207031 4.265625 -1.890625 4.265625 -1.484375 C 4.265625 -1.253906 4.21875 -1.039062 4.125 -0.84375 C 4.03125 -0.65625 3.894531 -0.492188 3.71875 -0.359375 C 3.539062 -0.222656 3.328125 -0.113281 3.078125 -0.03125 C 2.835938 0.0390625 2.566406 0.078125 2.265625 0.078125 C 1.859375 0.078125 1.460938 -0.00390625 1.078125 -0.171875 C 0.703125 -0.335938 0.367188 -0.578125 0.078125 -0.890625 Z M 0.078125 -0.890625 "/></g></g></g><g fill="#762e99" fill-opacity="1"><g transform="translate(60.803977, 166.736154)"><g><path d="M 0.578125 0 L 0.578125 -5.234375 L 1.15625 -5.234375 L 1.15625 -2.890625 L 4.1875 -2.890625 L 4.1875 -5.234375 L 4.765625 -5.234375 L 4.765625 0 L 4.1875 0 L 4.1875 -2.375 L 1.15625 -2.375 L 1.15625 0 Z M 0.578125 0 "/></g></g></g><g fill="#762e99" fill-opacity="1"><g transform="translate(71.375033, 166.736154)"><g><path d="M 0.03125 0 L 2.203125 -5.234375 L 2.890625 -5.234375 L 5.046875 0 L 4.40625 0 L 3.75 -1.640625 L 1.296875 -1.640625 L 0.625 0 Z M 1.5 -2.140625 L 3.5625 -2.140625 L 2.53125 -4.6875 Z M 1.5 -2.140625 "/></g></g></g><g fill="#762e99" fill-opacity="1"><g transform="translate(81.677138, 166.736154)"><g><path d="M 0.578125 0 L 0.578125 -5.234375 L 2.8125 -5.234375 C 3.320312 -5.234375 3.734375 -5.09375 4.046875 -4.8125 C 4.359375 -4.539062 4.515625 -4.179688 4.515625 -3.734375 C 4.515625 -3.390625 4.410156 -3.09375 4.203125 -2.84375 C 4.003906 -2.59375 3.738281 -2.421875 3.40625 -2.328125 L 4.578125 0 L 3.9375 0 L 2.828125 -2.25 L 1.15625 -2.25 L 1.15625 0 Z M 2.78125 -4.71875 L 1.15625 -4.71875 L 1.15625 -2.734375 L 2.78125 -2.734375 C 3.125 -2.734375 3.398438 -2.820312 3.609375 -3 C 3.828125 -3.1875 3.9375 -3.429688 3.9375 -3.734375 C 3.9375 -4.023438 3.828125 -4.257812 3.609375 -4.4375 C 3.398438 -4.625 3.125 -4.71875 2.78125 -4.71875 Z M 2.78125 -4.71875 "/></g></g></g><g fill="#762e99" fill-opacity="1"><g transform="translate(91.72524, 166.736154)"><g><path d="M 0.578125 0 L 0.578125 -5.234375 L 4.3125 -5.234375 L 4.3125 -4.71875 L 1.15625 -4.71875 L 1.15625 -2.890625 L 3.21875 -2.890625 L 3.21875 -2.390625 L 1.15625 -2.390625 L 1.15625 -0.515625 L 4.34375 -0.515625 L 4.34375 0 Z M 0.578125 0 "/></g></g></g><g fill="#762e99" fill-opacity="1"><g transform="translate(101.556697, 166.736154)"><g/></g></g><g fill="#762e99" fill-opacity="1"><g transform="translate(108.392384, 166.736154)"><g><path d="M 4.828125 -0.296875 L 4.484375 0.09375 C 4.347656 -0.0078125 4.203125 -0.125 4.046875 -0.25 C 3.898438 -0.375 3.75 -0.5 3.59375 -0.625 C 3.375 -0.394531 3.117188 -0.21875 2.828125 -0.09375 C 2.546875 0.0195312 2.242188 0.078125 1.921875 0.078125 C 1.398438 0.078125 0.976562 -0.0546875 0.65625 -0.328125 C 0.34375 -0.597656 0.1875 -0.957031 0.1875 -1.40625 C 0.1875 -1.707031 0.265625 -1.96875 0.421875 -2.1875 C 0.585938 -2.414062 0.847656 -2.628906 1.203125 -2.828125 L 1.359375 -2.90625 C 1.179688 -3.125 1.054688 -3.320312 0.984375 -3.5 C 0.910156 -3.6875 0.875 -3.878906 0.875 -4.078125 C 0.875 -4.421875 0.992188 -4.707031 1.234375 -4.9375 C 1.472656 -5.175781 1.773438 -5.296875 2.140625 -5.296875 C 2.484375 -5.296875 2.765625 -5.195312 2.984375 -5 C 3.203125 -4.800781 3.3125 -4.546875 3.3125 -4.234375 C 3.3125 -3.984375 3.242188 -3.757812 3.109375 -3.5625 C 2.972656 -3.375 2.765625 -3.195312 2.484375 -3.03125 L 2.109375 -2.796875 C 2.304688 -2.566406 2.523438 -2.332031 2.765625 -2.09375 C 3.015625 -1.851562 3.269531 -1.617188 3.53125 -1.390625 C 3.65625 -1.585938 3.753906 -1.804688 3.828125 -2.046875 C 3.910156 -2.285156 3.976562 -2.535156 4.03125 -2.796875 L 4.546875 -2.71875 C 4.472656 -2.394531 4.382812 -2.09375 4.28125 -1.8125 C 4.175781 -1.53125 4.050781 -1.273438 3.90625 -1.046875 C 4.0625 -0.910156 4.21875 -0.78125 4.375 -0.65625 C 4.53125 -0.53125 4.679688 -0.410156 4.828125 -0.296875 Z M 1.390625 -4.078125 C 1.390625 -3.929688 1.421875 -3.785156 1.484375 -3.640625 C 1.546875 -3.492188 1.65625 -3.328125 1.8125 -3.140625 L 2.234375 -3.390625 C 2.421875 -3.503906 2.5625 -3.625 2.65625 -3.75 C 2.75 -3.882812 2.796875 -4.039062 2.796875 -4.21875 C 2.796875 -4.394531 2.726562 -4.546875 2.59375 -4.671875 C 2.457031 -4.796875 2.300781 -4.859375 2.125 -4.859375 C 1.914062 -4.859375 1.738281 -4.785156 1.59375 -4.640625 C 1.457031 -4.492188 1.390625 -4.304688 1.390625 -4.078125 Z M 0.71875 -1.421875 C 0.71875 -1.109375 0.828125 -0.859375 1.046875 -0.671875 C 1.273438 -0.484375 1.578125 -0.390625 1.953125 -0.390625 C 2.191406 -0.390625 2.421875 -0.4375 2.640625 -0.53125 C 2.859375 -0.625 3.050781 -0.765625 3.21875 -0.953125 C 2.9375 -1.210938 2.65625 -1.476562 2.375 -1.75 C 2.101562 -2.03125 1.859375 -2.296875 1.640625 -2.546875 L 1.46875 -2.453125 C 1.195312 -2.296875 1.003906 -2.132812 0.890625 -1.96875 C 0.773438 -1.8125 0.71875 -1.628906 0.71875 -1.421875 Z M 0.71875 -1.421875 "/></g></g></g><g fill="#762e99" fill-opacity="1"><g transform="translate(118.500256, 166.736154)"><g/></g></g><g fill="#762e99" fill-opacity="1"><g transform="translate(125.335943, 166.736154)"><g><path d="M 0.078125 -0.890625 L 0.46875 -1.296875 C 0.726562 -1.003906 1.007812 -0.785156 1.3125 -0.640625 C 1.625 -0.492188 1.953125 -0.421875 2.296875 -0.421875 C 2.703125 -0.421875 3.035156 -0.519531 3.296875 -0.71875 C 3.566406 -0.914062 3.703125 -1.160156 3.703125 -1.453125 C 3.703125 -1.722656 3.609375 -1.929688 3.421875 -2.078125 C 3.234375 -2.222656 2.925781 -2.328125 2.5 -2.390625 L 1.734375 -2.515625 C 1.234375 -2.597656 0.863281 -2.742188 0.625 -2.953125 C 0.382812 -3.171875 0.265625 -3.46875 0.265625 -3.84375 C 0.265625 -4.269531 0.429688 -4.617188 0.765625 -4.890625 C 1.109375 -5.160156 1.554688 -5.296875 2.109375 -5.296875 C 2.472656 -5.296875 2.832031 -5.234375 3.1875 -5.109375 C 3.550781 -4.992188 3.878906 -4.820312 4.171875 -4.59375 L 3.84375 -4.15625 C 3.550781 -4.363281 3.257812 -4.519531 2.96875 -4.625 C 2.675781 -4.738281 2.378906 -4.796875 2.078125 -4.796875 C 1.710938 -4.796875 1.410156 -4.707031 1.171875 -4.53125 C 0.941406 -4.363281 0.828125 -4.148438 0.828125 -3.890625 C 0.828125 -3.640625 0.910156 -3.445312 1.078125 -3.3125 C 1.242188 -3.1875 1.515625 -3.097656 1.890625 -3.046875 L 2.640625 -2.921875 C 3.203125 -2.828125 3.613281 -2.664062 3.875 -2.4375 C 4.132812 -2.207031 4.265625 -1.890625 4.265625 -1.484375 C 4.265625 -1.253906 4.21875 -1.039062 4.125 -0.84375 C 4.03125 -0.65625 3.894531 -0.492188 3.71875 -0.359375 C 3.539062 -0.222656 3.328125 -0.113281 3.078125 -0.03125 C 2.835938 0.0390625 2.566406 0.078125 2.265625 0.078125 C 1.859375 0.078125 1.460938 -0.00390625 1.078125 -0.171875 C 0.703125 -0.335938 0.367188 -0.578125 0.078125 -0.890625 Z M 0.078125 -0.890625 "/></g></g></g><g fill="#762e99" fill-opacity="1"><g transform="translate(135.047868, 166.736154)"><g><path d="M 0.125 -4.71875 L 0.125 -5.234375 L 4.484375 -5.234375 L 4.484375 -4.71875 L 2.59375 -4.71875 L 2.59375 0 L 2.015625 0 L 2.015625 -4.71875 Z M 0.125 -4.71875 "/></g></g></g><g fill="#762e99" fill-opacity="1"><g transform="translate(144.886787, 166.736154)"><g><path d="M 0.578125 0 L 0.578125 -5.234375 L 2.8125 -5.234375 C 3.320312 -5.234375 3.734375 -5.09375 4.046875 -4.8125 C 4.359375 -4.539062 4.515625 -4.179688 4.515625 -3.734375 C 4.515625 -3.390625 4.410156 -3.09375 4.203125 -2.84375 C 4.003906 -2.59375 3.738281 -2.421875 3.40625 -2.328125 L 4.578125 0 L 3.9375 0 L 2.828125 -2.25 L 1.15625 -2.25 L 1.15625 0 Z M 2.78125 -4.71875 L 1.15625 -4.71875 L 1.15625 -2.734375 L 2.78125 -2.734375 C 3.125 -2.734375 3.398438 -2.820312 3.609375 -3 C 3.828125 -3.1875 3.9375 -3.429688 3.9375 -3.734375 C 3.9375 -4.023438 3.828125 -4.257812 3.609375 -4.4375 C 3.398438 -4.625 3.125 -4.71875 2.78125 -4.71875 Z M 2.78125 -4.71875 "/></g></g></g><g fill="#762e99" fill-opacity="1"><g transform="translate(154.934884, 166.736154)"><g><path d="M 0.578125 0 L 0.578125 -5.234375 L 4.3125 -5.234375 L 4.3125 -4.71875 L 1.15625 -4.71875 L 1.15625 -2.890625 L 3.21875 -2.890625 L 3.21875 -2.390625 L 1.15625 -2.390625 L 1.15625 -0.515625 L 4.34375 -0.515625 L 4.34375 0 Z M 0.578125 0 "/></g></g></g><g fill="#762e99" fill-opacity="1"><g transform="translate(164.766336, 166.736154)"><g><path d="M 0.03125 0 L 2.203125 -5.234375 L 2.890625 -5.234375 L 5.046875 0 L 4.40625 0 L 3.75 -1.640625 L 1.296875 -1.640625 L 0.625 0 Z M 1.5 -2.140625 L 3.5625 -2.140625 L 2.53125 -4.6875 Z M 1.5 -2.140625 "/></g></g></g><g fill="#762e99" fill-opacity="1"><g transform="translate(175.068439, 166.736154)"><g><path d="M 3.15625 -0.375 L 1.109375 -4.5625 L 1.109375 0 L 0.578125 0 L 0.578125 -5.234375 L 1.375 -5.234375 L 3.171875 -1.515625 L 4.9375 -5.234375 L 5.75 -5.234375 L 5.75 0 L 5.203125 0 L 5.203125 -4.578125 Z M 3.15625 -0.375 "/></g></g></g></svg>